PathFileType	4	(X/Y/Z)	./resultDataOpenSim/trcMotMarkerGrf/sub06/qtm-12-04.trc
DataRate	CameraRate	NumFrames	NumMarkers	Units	OrigDataRate	OrigDataStartFrame	OrigNumFrames
250.000000	250.000000	11	24	m	250.000000	68	537
Frame#	Time	L.Toe.Tip			R.Toe.Tip			L.Ankle.Lat			R.Ankle.Lat			L.Ankle.Med			R.Ankle.Med			L.Heel			R.Heel			L.Knee.Lat			R.Knee.Lat			L.Knee.Med			R.Knee.Med			L.Thigh.Upper			R.Thigh.Upper			L.ASIS			R.ASIS			V.Sacral			L.Acromium			R.Acromium			C7			L.Elbow			R.Elbow			L.Wrist.Lat			R.Wrist.Lat
		X1	Y1	Z1	X2	Y2	Z2	X3	Y3	Z3	X4	Y4	Z4	X5	Y5	Z5	X6	Y6	Z6	X7	Y7	Z7	X8	Y8	Z8	X9	Y9	Z9	X10	Y10	Z10	X11	Y11	Z11	X12	Y12	Z12	X13	Y13	Z13	X14	Y14	Z14	X15	Y15	Z15	X16	Y16	Z16	X17	Y17	Z17	X18	Y18	Z18	X19	Y19	Z19	X20	Y20	Z20	X21	Y21	Z21	X22	Y22	Z22	X23	Y23	Z23	X24	Y24	Z24

68	0.268	-1.2909951	0.080874154	-0.11605393	-0.77419854	0.035061609	0.029402724	-1.2943555	0.21125915	-0.14286025	-0.90607888	0.061213634	0.061440491	-1.2717031	0.21437102	-0.062904181	-0.89607198	0.079341567	-0.028007334	-1.3403539	0.26537071	-0.090124981	-0.96740682	0.038434341	0.0036606461	-0.96269612	0.3904662	-0.1784019	-0.84107382	0.44254345	0.083754188	-0.9556011	0.38220778	-0.054953654	-0.89074222	0.43248282	-0.034225762	-0.99912755	0.78352863	-0.17843916	-0.95560567	0.79947033	0.16286081	-0.91886311	0.83416174	-0.14497552	-0.87894839	0.8514326	0.09649706	-1.0829454	0.92187452	0.0028843544	-0.96635117	1.3279685	-0.19489482	-0.95811937	1.3075544	0.16957286	-1.0423496	1.3560043	-0.010959978	-1.0013053	1.0094631	-0.24329161	-1.0515877	1.0030372	0.21944064	-0.85607598	0.81212208	-0.25358773	-0.9409843	0.790749	0.24903752
69	0.272	-1.2754057	0.080724041	-0.11624968	-0.77426301	0.035072989	0.029432814	-1.2804765	0.21104202	-0.14231731	-0.90620064	0.061221596	0.06153801	-1.257635	0.21421407	-0.06247768	-0.89613102	0.079481144	-0.027829771	-1.3270564	0.26443371	-0.089334938	-0.96742502	0.038514753	0.003759229	-0.95061163	0.39275556	-0.17853026	-0.83955119	0.44260579	0.083766939	-0.94348903	0.38451301	-0.054772214	-0.88875741	0.43284027	-0.034381232	-0.99279457	0.78558883	-0.17778902	-0.95202504	0.80027167	0.16282352	-0.9123602	0.83616366	-0.14463249	-0.87332828	0.85278501	0.09727936	-1.0768345	0.92347037	0.0036186248	-0.96124078	1.3297361	-0.19473491	-0.9521207	1.3096197	0.16962846	-1.0366662	1.3576385	-0.010747799	-0.99682835	1.011427	-0.24236809	-1.0440636	1.0048189	0.22112941	-0.85328394	0.81329393	-0.25428557	-0.93144784	0.7932741	0.24956925
70	0.276	-1.2595794	0.080379887	-0.11641637	-0.77433333	0.035086123	0.02946595	-1.2665707	0.21060735	-0.14174448	-0.90634625	0.061232245	0.061640036	-1.243491	0.21385797	-0.062053896	-0.89619174	0.07963887	-0.02764779	-1.3136924	0.26326279	-0.088540831	-0.96745383	0.038599844	0.0038648809	-0.93864048	0.39511975	-0.17862137	-0.83825077	0.44261566	0.083911963	-0.93159385	0.38685491	-0.054406781	-0.88706247	0.43311114	-0.034421409	-0.98644304	0.78765377	-0.17713711	-0.94745236	0.80116888	0.16302752	-0.90592135	0.83817223	-0.14427897	-0.86745377	0.85417783	0.09809795	-1.0708509	0.92503938	0.0041892362	-0.95611684	1.3315119	-0.19456495	-0.94600266	1.3116914	0.16966196	-1.0309856	1.3592591	-0.010523927	-0.99251383	1.0134517	-0.24162995	-1.0367519	1.0067037	0.22330999	-0.85047894	0.81451664	-0.25498156	-0.92187183	0.79584556	0.25006614
71	0.28	-1.2434824	0.079860791	-0.11657014	-0.77441166	0.035102067	0.029499327	-1.2526561	0.20996068	-0.1411631	-0.90653357	0.061244317	0.061754626	-1.2292691	0.21331704	-0.061644581	-0.89626878	0.079816084	-0.02747367	-1.3002862	0.2618342	-0.08782177	-0.96749734	0.038689151	0.0039773662	-0.92677987	0.39755837	-0.17868996	-0.83720355	0.44255718	0.084259964	-0.91964061	0.38924284	-0.054043827	-0.885733	0.4333166	-0.03429499	-0.9801183	0.78969065	-0.17664132	-0.94185317	0.80218427	0.16352716	-0.89986836	0.84015293	-0.14400013	-0.8613025	0.85560954	0.098948761	-1.0649491	0.92656438	0.0046261657	-0.95097688	1.3332864	-0.19438268	-0.93974103	1.3137724	0.16968035	-1.0253104	1.3608544	-0.010289749	-0.98839573	1.0155301	-0.24111695	-1.0295259	1.0086024	0.22565923	-0.84765493	0.81578861	-0.25566621	-0.91226388	0.79845775	0.25053426
72	0.284	-1.2270969	0.079203764	-0.11674738	-0.77449646	0.035118596	0.029529501	-1.2386662	0.20911636	-0.14059711	-0.90675196	0.061260347	0.061884488	-1.2149527	0.21261104	-0.061253862	-0.89636661	0.080005798	-0.027309057	-1.2868606	0.26013034	-0.087108671	-0.96755295	0.038779158	0.0040949909	-0.91494846	0.40007205	-0.17872473	-0.83624314	0.44246243	0.084755499	-0.90753119	0.39170607	-0.053819398	-0.88465775	0.43349627	-0.03403018	-0.97384533	0.79168215	-0.17636242	-0.93590461	0.8032408	0.16414821	-0.89426143	0.8421014	-0.14382093	-0.85513796	0.85705096	0.099774646	-1.0591101	0.9280441	0.0049640751	-0.94581896	1.3350476	-0.19418949	-0.93340794	1.315853	0.16969129	-1.0196333	1.3624117	-0.010043304	-0.98445074	1.017637	-0.24080067	-1.0222059	1.010399	0.22767988	-0.84481431	0.81710113	-0.25634637	-0.90267243	0.80109042	0.25097591
73	0.288	-1.2104178	0.078453031	-0.11696267	-0.77458105	0.035133028	0.029554273	-1.2245162	0.208094	-0.14006611	-0.90696932	0.061284341	0.062026612	-1.2005294	0.21174841	-0.06087369	-0.89647888	0.080198443	-0.027149497	-1.2734173	0.25814421	-0.086347075	-0.96761247	0.038863031	0.0042121186	-0.90311269	0.40264906	-0.17871404	-0.83519065	0.44237109	0.085302772	-0.89535704	0.39425333	-0.053735948	-0.88362337	0.433677	-0.033663872	-0.96761102	0.79363719	-0.17626245	-0.93030175	0.80426032	0.16465355	-0.88885711	0.84403782	-0.14368587	-0.84947494	0.85845177	0.10047346	-1.0533485	0.92948873	0.005198746	-0.94064156	1.3367891	-0.19399209	-0.92710628	1.3179021	0.16969244	-1.0139454	1.3639261	-0.0097843328	-0.98060767	1.0197441	-0.24060395	-1.0147346	1.0120608	0.22918401	-0.84195938	0.8184368	-0.25703196	-0.89315494	0.80370834	0.25138345
74	0.292	-1.1934797	0.077628277	-0.11715071	-0.774656	0.035144321	0.029572554	-1.2101877	0.20690321	-0.13957504	-0.90716228	0.061318695	0.062168074	-1.1859868	0.21072896	-0.060480672	-0.89659608	0.080388692	-0.026991743	-1.2599439	0.25588134	-0.085574672	-0.96766606	0.038940718	0.0043208103	-0.89131154	0.40526995	-0.17866033	-0.83405305	0.44230648	0.085862735	-0.88324924	0.39687759	-0.053715886	-0.88248014	0.43387639	-0.033220907	-0.96137789	0.79557549	-0.17627173	-0.92539309	0.80519977	0.16487647	-0.88333728	0.8459792	-0.14352645	-0.84465156	0.8597827	0.10097548	-1.0476695	0.93088936	0.0053227862	-0.93544184	1.3385014	-0.19379581	-0.92087421	1.3198929	0.16967878	-1.0082493	1.3654038	-0.0095181539	-0.97675355	1.0218196	-0.24040501	-1.0071762	1.013632	0.2303325	-0.83908941	0.8197816	-0.25772534	-0.88366762	0.80629443	0.25174797
75	0.296	-1.1763474	0.076704654	-0.11720098	-0.77471244	0.035152371	0.029583049	-1.1957204	0.20553912	-0.13911124	-0.90732916	0.061367526	0.062277235	-1.1712517	0.20957002	-0.060054858	-0.8967081	0.080577405	-0.026834571	-1.2464338	0.25335089	-0.08482891	-0.96770888	0.039020796	0.0044223154	-0.87958665	0.40792243	-0.17856734	-0.8330106	0.44228322	0.086476748	-0.87124254	0.39958959	-0.053669928	-0.88124969	0.43409907	-0.032723853	-0.95510604	0.79750374	-0.1763164	-0.92102922	0.80605022	0.16483439	-0.87749616	0.84793095	-0.14332086	-0.84034682	0.86107919	0.10132906	-1.0420532	0.9322073	0.0053733666	-0.93022017	1.340168	-0.1936022	-0.91468575	1.3218231	0.16964962	-1.002556	1.3668501	-0.0092533365	-0.97279698	1.023836	-0.24009113	-0.99960761	1.0151627	0.23133303	-0.83619944	0.82112731	-0.25843194	-0.87405602	0.80887813	0.25207304
76	0.3	-1.1590046	0.075666361	-0.11713748	-0.77474576	0.035157187	0.029584157	-1.1811545	0.20399659	-0.13865871	-0.90744648	0.061443429	0.062319731	-1.1562551	0.20829735	-0.059589645	-0.89680159	0.080767405	-0.02667661	-1.2328787	0.25055234	-0.084109639	-0.96774457	0.039103084	0.0045299377	-0.86793883	0.41059912	-0.1784383	-0.83223296	0.44230293	0.087173832	-0.85927941	0.402421	-0.053545474	-0.88012572	0.43432234	-0.032187427	-0.94878495	0.79941418	-0.17634461	-0.91653723	0.80685688	0.16476884	-0.87128913	0.84989513	-0.14308202	-0.83585603	0.86240639	0.10165232	-1.0364689	0.93341162	0.005446489	-0.92498407	1.3417788	-0.19341572	-0.90850799	1.3237004	0.16960309	-0.99687022	1.3682551	-0.0089956987	-0.96874293	1.0257893	-0.23964342	-0.99207103	1.0166808	0.23228778	-0.83327709	0.82246937	-0.25915455	-0.86425126	0.81150041	0.25237273
77	0.304	-1.1413517	0.074552674	-0.11714084	-0.77475815	0.035159645	0.029576043	-1.1664986	0.20227725	-0.13821064	-0.90744334	0.061557397	0.062305119	-1.1410892	0.20690739	-0.059093493	-0.89686534	0.080958749	-0.026516529	-1.2192617	0.24747776	-0.083409934	-0.96777858	0.039181871	0.0046495834	-0.85636024	0.41328395	-0.17827928	-0.83171166	0.44232847	0.08786731	-0.84733246	0.40538958	-0.053343634	-0.87938085	0.43451057	-0.031654097	-0.94245651	0.80130285	-0.1763588	-0.91129337	0.80768955	0.16491858	-0.86483101	0.85186962	-0.14281323	-0.83084876	0.86377947	0.1020034	-1.0308782	0.93451602	0.0056457159	-0.91974312	1.343333	-0.19324254	-0.90232935	1.3255246	0.16953755	-0.99118532	1.3696033	-0.0087445313	-0.96466116	1.0276856	-0.23914103	-0.98458105	1.0181924	0.23322583	-0.83030077	0.8238134	-0.25987613	-0.85438956	0.81415661	0.25265285
78	0.308	-1.1233685	0.073405899	-0.11730996	-0.77475518	0.035161668	0.029561724	-1.1517374	0.20038265	-0.13777146	-0.90730433	0.061689928	0.062289541	-1.125922	0.2053727	-0.05860705	-0.89690005	0.081147796	-0.026355501	-1.2055658	0.24412028	-0.082724591	-0.96781139	0.039267747	0.0047723487	-0.84485407	0.41596332	-0.1780905	-0.83126939	0.44230625	0.088424458	-0.83545238	0.40848132	-0.053089955	-0.87909027	0.43465938	-0.031217739	-0.93618576	0.80317405	-0.17639738	-0.90541768	0.80855546	0.16525301	-0.85836297	0.85383693	-0.14251059	-0.82549741	0.86515137	0.10236305	-1.0252727	0.93557363	0.0059480567	-0.91450232	1.3448321	-0.19307957	-0.89615364	1.3272881	0.16945862	-0.98549532	1.3708893	-0.0084953778	-0.96057908	1.0295082	-0.23865058	-0.97713069	1.0196832	0.23415567	-0.82724764	0.8251677	-0.26057422	-0.84464078	0.81680346	0.25290618
